<svg width="1024" height="1024" viewBox="0 0 1024 1024" fill="none" xmlns="http://www.w3.org/2000/svg">
<g clip-path="url(#clip0_2_3)">
<path d="M493.229 882.989L530.72 882.766L512.196 976.48L493.229 882.989Z" fill="#D4C985"/>
<path d="M737.495 216.878L818.086 135.365C814.844 142.946 810.081 150.191 806.167 157.467L776.308 211.386L767.41 227.068C765.462 230.459 763.123 233.974 761.791 237.65L737.495 216.878Z" fill="#D4C985"/>
<path d="M787.269 262.999L885.25 207.404L808.717 288.739L787.269 262.999Z" fill="#D4C985"/>
<path d="M219.368 738.402L242.138 765.944C236.748 767.603 231.618 770.37 226.577 772.879L210.679 780.503L141.189 813.792L219.368 738.402Z" fill="#D4C985"/>
<path d="M882.537 491.828L979.144 511.412L882.554 532.541L882.537 491.828Z" fill="#D4C985"/>
<path d="M140.979 491.271L140.969 531.867L43.054 511.528L140.979 491.271Z" fill="#D4C985"/>
<path d="M736.544 806.769L767.232 781.844L767.253 782.565C767.314 783.926 767.389 785.333 767.873 786.619C769.482 790.893 771.936 795.06 773.897 799.205L787.304 827.081L807.822 868.589L817.993 886.29L758.326 827.557L744.674 814.304C742.071 811.772 739.474 808.905 736.544 806.769Z" fill="#D4C985"/>
<path d="M214.584 292L136.293 207.044L237.437 263.965C229.469 272.814 221.173 282.059 214.584 292Z" fill="#D4C985"/>
<path d="M259.561 783.259L289.742 808.54L210.055 882.271L259.561 783.259Z" fill="#D4C985"/>
<path d="M260.749 240.555C258.839 235.575 255.905 230.675 253.427 225.931L242.93 205.444L206.953 136.309L289.073 215.861L289.638 216.329L260.749 240.555Z" fill="#D4C985"/>
<path d="M811.006 733.261C815.201 737.936 818.65 743.024 822.527 747.94L836.049 763.999L878.764 810.507C881.46 813.196 884.483 815.438 887.183 818.08L784.985 764.68C794.389 755.438 803.376 744.036 811.006 733.261Z" fill="#D4C985"/>
<path d="M508.667 67.5043L512.142 52.5303L535.231 141.278C547.953 141.813 560.371 143.609 572.91 145.75C615.214 152.972 657.117 167.984 694.543 189.011C709.555 197.445 723.378 207.097 737.495 216.878L761.791 237.65L787.269 262.999L808.717 288.739C838.882 330.746 862.284 377.315 873.446 428.113C878.088 449.238 880.472 470.352 882.537 491.828L882.554 532.541C879.919 603.595 853.186 676.217 811.006 733.261C803.376 744.036 794.389 755.438 784.985 764.68C779.253 770.499 773.627 776.759 767.232 781.844L736.544 806.769C677.405 851.3 605.096 880.105 530.72 882.766L493.229 882.989C459.053 880.748 425.185 874.778 392.766 863.504C355.756 850.635 321.465 831.37 289.742 808.54L259.561 783.259L242.138 765.944L219.368 738.402L201.669 714.153C175.735 674.828 156.336 629.756 147.183 583.481C143.798 566.37 142.105 549.243 140.969 531.867L140.979 491.271C143.602 455.157 150.19 419.845 162.697 385.77C175.11 351.952 192.928 320.703 214.584 292C221.173 282.059 229.469 272.814 237.437 263.965L260.749 240.555L289.638 216.329C293.628 213.869 297.435 210.749 301.309 208.064L325.663 192.257C363.551 169.776 404.808 154.298 448.169 146.434C460.991 144.109 473.903 142.072 486.929 141.39L491 140.92C492.371 138.822 492.571 134.489 493.119 131.892L497.504 112.507L508.667 67.5043Z" fill="#027848"/>
<path d="M486.277 168.918L486.394 169.834C487.172 175.749 490.197 180.128 492.538 185.485C489.067 181.52 484.926 177.383 482.689 172.581C483.288 172.935 483.71 173.261 484.226 173.746L484.75 174.255L486 172.75C485.771 171.652 485.699 170.925 486.001 169.85L486.277 168.918Z" fill="#8EB558"/>
<path d="M349.65 622.085C352.366 621.962 355.123 621.895 357.817 621.52C359.448 621.293 362.596 619.98 364.065 620.191L358.935 624.086C368.878 623.736 377.078 623.054 386.388 619.222L379.294 625.392C386.283 624.95 393.718 624.987 400.405 622.696C403.037 621.794 405.429 619.914 408.022 619.192L402.586 625.087C412.798 624.401 419.923 623.699 429.048 618.586C427.927 619.914 425.317 622.292 424.88 623.869C431.379 622.892 438.398 621.921 444.25 618.773C444.203 619.688 444.112 619.977 443.75 620.779C444.013 620.936 444.236 621.2 444.538 621.25C445.946 621.485 450.581 619.815 452.124 619.447L478.298 613.398L498.047 608.678C499.259 608.44 501.294 607.74 502.48 607.979C494.356 612.344 485.467 615.333 476.82 618.458C472.596 619.984 468.405 621.892 463.982 622.75C464.528 624.412 466.128 623.876 466.75 625.303L466.089 625.369C459.07 626.209 452.277 630.351 445.373 632.092C447.675 632.831 450.615 633.417 452.647 634.704C444.21 635.408 438.018 638.378 430.545 642.123C422.868 644.923 415.667 650.178 408.506 654.167L368.883 675.361L302.898 708.354L288.529 715.431C285.399 716.92 282.128 718.23 279.225 720.132L276.137 716.436C285.115 702.096 296.768 688.875 307.25 675.59L349.65 622.085Z" fill="#D4C985"/>
<path d="M607.712 661.336C601.819 656.36 597.567 653.644 590.133 651.485L597.448 649.544C591.191 646.225 585.19 644.057 578.624 641.513L587.192 640.668C580.728 636.755 574.352 634.777 567.25 632.404L567.553 631.628L571.965 631.369L571.75 630.879C567.453 628.338 561.823 624.224 556.956 623.342C555.828 623.137 555.677 623.201 554.705 622.5C555.366 621.827 555.134 622.177 555.474 621.5C552.122 619.124 547.509 617.471 543.668 615.99L528.578 610.242C526.013 609.306 522.967 608.565 520.632 607.175L533.454 609.206L583.46 621.676C582.923 621.111 580.295 618.65 580.266 618.081C582.683 619.236 585.185 620.594 587.748 621.372C591.758 622.589 596.04 622.982 600.155 623.737L595.904 618.521C605.1 622.985 611.851 624.622 622.137 624.492L616.638 618.599C624.555 622.861 633.996 625.171 643.048 624.168L638.24 618.26C647.144 622.87 655.092 622.469 664.814 622.262C662.423 620.336 660.394 618.551 658.509 616.115C663.478 618.542 668.096 619.897 673.538 620.825C677.343 626.96 682.232 632.138 686.822 637.676L702.942 657.669L735.427 698.19C739.988 703.949 744.093 710.393 748.961 715.85L745.98 719.123C743.952 717.211 740.675 716.699 738.108 715.709L722.522 709.322L649.031 676.975C635.998 671.285 622.666 664.613 609 660.607L607.712 661.336Z" fill="#D4C985"/>
<path d="M683.498 490.696L823.421 509.322L672.852 552.308L653.89 558.442C652.674 558.875 650.078 559.455 649.142 560.152C648.78 560.423 648.611 560.884 648.346 561.25L648.552 562.293L649.415 562.773L627.483 569.2L630.864 563.703C621.278 566.693 610.396 569.696 601.516 574.28L604.531 570.41C598.757 572.364 592.516 574.1 587.314 577.305C586.695 577.687 586.341 577.839 585.627 577.926L585.25 576.836L536.109 596.767L524.75 601.456V601.085L526.66 599.666L544.959 589.864L567.033 579.25C570.716 577.536 576.16 575.965 579.161 573.25L576.25 572.431L576.018 571.75C583.939 571.258 589.373 568.054 596.026 564.174L589.735 561.542L589.967 561.323C600.263 561.886 611.22 556.06 619.59 550.541L608.907 546.012C612.568 545.809 616.787 545.917 620.278 544.806L621 544.559C626.504 542.744 631.685 539.282 636.469 536.069C638.993 534.374 641.809 532.677 644.088 530.679L632.244 527.655C642.003 526.433 647.78 523.589 655.533 517.634C657.676 515.989 660.011 514.39 661.804 512.364C660.232 511.273 658.327 511.613 656.5 511.434L649 510.47C653.097 509.986 656.779 509.535 660.583 507.81C667.487 504.679 673.491 500.413 679.151 495.401C680.602 494.116 682.803 492.54 683.498 490.696Z" fill="#D4C985"/>
<path d="M386.173 564.498C384.302 562.32 376.861 561.039 373.917 560.154L334.023 548.651L242.925 522.312L198.448 509.985L344.935 491.174L344.904 492.032C353.798 500.614 362.825 506.078 374.402 510.408L362.882 513.952C372.74 518.736 381.919 523.955 392.404 527.348L380.787 530.64C387.904 536.302 395.932 540.521 404.266 544.124L413.502 547.583C414.175 547.819 415.586 548.09 416.015 548.645C412.944 549.267 407.457 549.767 404.893 551.422C412.694 556.412 424.411 562.271 433.75 562.726L436.086 562.836L426.595 566.176L448.5 573.076L448.789 573.78L447.196 574.75L447.5 575.365L448.21 575.547C454.241 577.138 460.192 580.32 465.873 582.907C478.59 588.701 491.801 594.299 503.325 602.278L428.993 573.074C429.44 574.141 430.333 575.608 430.215 576.75L429.861 576.464C425.832 573.385 419.339 571.89 414.516 570.203C412.095 569.357 409.506 568.131 406.994 567.688L408.97 573.289C403.603 569.634 398.392 567.857 392.218 566.017C390.359 565.463 388.085 564.506 386.173 564.498Z" fill="#D4C985"/>
<path d="M578.431 414.194C580.689 409.552 585.65 405.271 589.339 401.728L605.716 386.18L642.622 350.914L710.314 285.672L689.857 344.455L678.631 376.064C677.561 378.908 676.162 384.571 673.872 386.404C671.501 388.49 669.719 391.236 667.613 393.595C663.576 398.116 658.484 402.33 655.767 407.81C654.233 410.905 653.98 414.737 652.386 417.634L649.709 404.323C643.787 410.677 637.523 417.423 633.614 425.25C632.081 428.32 631.337 431.56 630.34 434.818C629.19 430.206 628.39 425.984 628.405 421.209C621.448 429.373 611.871 439.177 608.922 449.686C608.166 452.378 608.199 455.298 608.209 458.077C606.733 453.569 606.434 449.087 605.198 444.664C599.172 453.161 592.802 461.707 589.576 471.75C588.501 475.097 588.119 478.648 587.685 482.122C586.985 479.467 586.208 473.931 584.585 471.822C579.632 481.667 574.423 491.255 573.794 502.454C572.814 499.812 571.849 497.305 571.467 494.497C567.568 501.616 564.813 507.324 563.75 515.449L563.185 515.25L562.314 512.663L561.539 512.75C556.811 520.033 553.466 528.682 552.75 537.35C551.814 536.428 551.59 534.022 550.63 533.75L536.893 562.018L530.018 574.604C529.457 575.611 527.874 577.814 527.778 578.822L515.588 599.554C515.29 598.018 515.266 596.474 515.182 594.914C515.64 591.865 517.17 588.911 518.456 586.127L526.583 569.995L547.083 531.084L558.534 504.295L547.112 509.787C558.416 495.65 564.467 476.368 568.429 458.922C564.313 461.553 560.889 462.84 556.172 464.05C556.187 463.484 557.998 461.896 558.479 461.376C561.276 458.349 563.51 454.701 565.54 451.13C571.924 439.903 576.283 426.91 578.431 414.194Z" fill="#D4C985"/>
<path d="M302.798 280.945L304.382 279.344C307.942 281.065 310.581 284.039 313.494 286.64L342.404 314.902L420.778 391.977L438.323 409.59C440.534 411.833 442.767 414.991 445.374 416.673C446.547 417.867 448.746 429.22 449.8 431.933C454.345 443.622 460.712 455.221 469.406 464.303C464.955 462.981 460.833 461.084 456.624 459.146C460.64 476.924 466.62 494.463 476.895 509.605L465.567 505.068C466.076 508.873 469.479 514.241 471.091 517.861L494.019 565.195C499.28 576.035 504.749 586.59 507.885 598.29C503.206 592.898 500.05 587.039 496.48 580.912C486.998 564.642 479.272 547.617 470.659 530.905C470.073 533.218 469.154 535.339 468.233 537.531C468.502 534.727 468.77 531.541 468.418 528.75C467.769 523.6 464.608 517.407 462.471 512.715L460.387 517.376C459.56 509.259 456.301 503.31 452.499 496.276C450.742 499.253 449.978 503.928 448.786 507.293C448.203 506.373 448.184 504.059 448.016 502.908C447.62 500.195 447.048 497.525 446.286 494.891C444.018 487.054 440.162 480.058 435.608 473.338C434.59 477.643 433.034 481.588 431.262 485.63C429.797 478.066 428.313 470.51 425.004 463.484C422.97 459.167 420.149 455.316 417.444 451.405C416.185 455.47 414.679 459.144 412.754 462.939C412.598 460.567 412.704 458.151 412.168 455.823C409.822 445.644 403.213 437.427 395.98 430.273L396.089 432C396.548 436.246 395.19 439.031 393.488 442.814C391.97 430.054 384.503 419.761 375.067 411.336L374.507 411.5L374.186 415.085L373.827 414.608C371.057 411.316 369.796 407.202 367.774 403.416L349.353 368.124L316.565 306.467L308.757 291.028C307.034 287.607 305.428 283.759 302.798 280.945Z" fill="#D4C985"/>
<path d="M515.597 639.539C516.803 631.552 515.22 622.983 516.245 614.888C521.345 622.384 524.906 631.474 530.75 638.357L531.44 638.25L531.75 636.779C533.317 638.639 537.041 647.198 538.859 647.435L539.25 645.494C540.999 649.898 543.005 653.929 546.25 657.432L546.902 657.25L547.286 655.75C547.574 656.448 548.106 657.371 548.225 658.097C547.306 664.263 547.06 670.536 546.521 676.75L543.016 723.271L535.747 799.505C535.588 801.583 535.349 803.25 536.055 805.245L536.162 805.575L537.25 805.796C537.747 808.13 537.578 811.101 536.729 813.328L535.155 813.458L533.705 814.136L533.027 824.166C527.371 824.727 520.432 824.943 514.81 824.135L509.899 824.362C506.213 824.649 502.263 824.202 498.563 824.02C491.722 823.684 484.87 823.341 478.098 822.252C478.761 821.72 478.413 822.041 479.107 821.25L477.755 771.319L477.5 715.134L477.195 682.75C477.006 674.798 477.507 666.73 474.81 659.137C477.936 654.892 480.121 651.152 482.093 646.25L482.631 646.475L483.236 649.25C484.758 647.305 486.172 645.109 487.25 642.881C488.014 641.303 488.355 639.539 489.399 638.115L490.091 640.329C493.665 638.224 496.56 631.956 498.993 628.5L508.613 615.21L508.614 645.685L509.226 625.75C509.991 626.787 509.547 649.256 509.559 652.749C511.221 654.247 512.886 655.006 514.935 655.842L514.939 641.484C515.008 640.5 515.032 641.014 514.939 640.062L514.878 639.5C515.082 635.117 514.223 629.563 515.25 625.387L515.597 639.539Z" fill="#D4C985"/>
<path d="M508.614 645.685L509.226 625.75C509.991 626.787 509.547 649.256 509.559 652.749C511.221 654.247 512.886 655.006 514.935 655.842L514.939 641.484C515.008 640.5 515.032 641.014 514.939 640.062L514.878 639.5C515.082 635.117 514.223 629.563 515.25 625.387L515.597 639.539L519.41 792.849C523.135 795.494 526.524 798.504 530 801.457C531.884 803.058 533.699 804.997 536.162 805.575L537.25 805.796C537.747 808.13 537.578 811.101 536.729 813.328L535.155 813.458L533.705 814.136L533.027 824.166C527.371 824.727 520.432 824.943 514.81 824.135L509.899 824.362L500.423 809.633C496.666 809.025 493.254 809.1 489.647 810.424L485.006 812.135C484.833 809.926 484.422 805.708 485.472 803.852L489.25 804.027C492.267 801.032 496.177 799.176 499.128 796.129C501.881 793.287 503.305 789.412 504.081 785.592C505.245 779.863 505.56 773.852 505.969 768.027L507.165 728.417L508.614 645.685Z" fill="#023536"/>
<path d="M514.81 824.135L519.25 818.801C521.134 816.339 521.042 813.031 520.672 810.115L520.567 809.318C526.332 809.836 530.451 809.751 535.155 813.458L533.705 814.136L533.027 824.166C527.371 824.727 520.432 824.943 514.81 824.135Z" fill="#D4C985"/>
<path d="M515.597 639.539C516.803 631.552 515.22 622.983 516.245 614.888C521.345 622.384 524.906 631.474 530.75 638.357L531.44 638.25L531.75 636.779C533.317 638.639 537.041 647.198 538.859 647.435L539.25 645.494C540.999 649.898 543.005 653.929 546.25 657.432L546.902 657.25L547.286 655.75C547.574 656.448 548.106 657.371 548.225 658.097C547.306 664.263 547.06 670.536 546.521 676.75L543.016 723.271L535.747 799.505C535.588 801.583 535.349 803.25 536.055 805.245L536.162 805.575C533.699 804.997 531.884 803.058 530 801.457C526.524 798.504 523.135 795.494 519.41 792.849L515.597 639.539Z" fill="#D4C985"/>
<path d="M430.545 642.123L438.071 644.126C431.737 645.048 425.68 646.874 420.488 650.75L420.75 651.452C422.058 651.881 423.184 652.095 424.553 652.25L424.25 652.854L423.562 653.058C417.344 654.957 412.834 658.969 407.731 662.813L413.65 663.313C407.516 665.758 403.966 668.028 399.275 672.623C398.322 673.557 396.953 674.627 396.193 675.706L396.079 675.99C398.493 675.513 401.069 674.776 403.522 674.712C400.654 676.355 397.447 677.943 394.875 680.027C391.653 682.635 389.066 686.088 386.551 689.349L393.849 686.809C391.428 688.713 388.561 690.532 386.362 692.648C383.941 694.977 382.116 697.798 380.287 700.594C381.432 700.335 384.322 699.358 385.25 699.854L384.641 700.264C380.559 703.073 376.878 707.358 375.058 712L375.494 712.25L377.75 711.387C377.75 713.936 370.146 718.102 371.035 720.796L372.461 720.75C372.503 722.647 363.072 732.148 364.954 733.333L365.402 733.5L364.265 735.159C360.399 740.478 357.662 747.015 354.764 752.929C354.092 754.301 352.525 756.647 352.403 758.127C357.706 753.736 364.014 749.649 368.549 744.5L369.416 743.648L369.75 744.584C371.735 743.513 373.498 742.416 375.235 740.969C376.345 740.043 378.738 736.966 379.907 736.75L380.283 737.75C383.643 735.93 386.733 734.377 389.25 731.438C390.304 731.88 389.773 731.598 390.825 732.32C391.543 731.728 392.797 730.961 393.336 730.25C393.861 729.559 394.316 727.218 394.75 726.245L395.366 726.5L395.271 727.238C395.191 728.025 395.216 728.448 395.409 729.191C397.995 728.578 402.907 724.515 404.479 722.25C405.058 721.417 405.428 720.434 405.75 719.479L406.284 721.25C407.631 721.25 409.704 719.515 410.696 718.568C411.982 717.339 412.41 714.884 412.657 713.182L413.437 713.5C413.399 714.768 413.295 715.666 413.75 716.878C417.821 714.696 421.244 710.871 423.274 706.75C423.744 707.713 423.697 708.245 423.714 709.296C426.76 707.629 429.542 702.792 430.75 699.61L431.269 699.75C431.318 701.287 431.074 702.356 432 703.613C435.977 700.859 439.652 694.133 441.25 689.661L441.882 690L441.725 692.173L442.334 692.75C445.276 690.182 446.972 685.69 448.756 682.25L449.341 686.842L449.604 687.045C452.372 683.122 455.498 679.358 457.004 674.75C458.005 675.264 458.775 678.654 459.192 679.842L466.362 663.522L466.06 671.151C469.114 666.174 472.306 661.424 473.932 655.75L474.298 655.5L474.81 659.137C477.507 666.73 477.006 674.798 477.195 682.75L477.5 715.134L477.755 771.319L479.107 821.25C478.413 822.041 478.761 821.72 478.098 822.252C402.456 813.805 330.962 775.492 279.225 720.132C282.128 718.23 285.399 716.92 288.529 715.431L302.898 708.354L368.883 675.361L408.506 654.167C415.667 650.178 422.868 644.923 430.545 642.123Z" fill="#EFECD8"/>
<path d="M473.949 201.182C475.946 204.141 476.132 210.591 477.321 214.266C478.759 218.71 481.041 222.42 483.58 226.315C481.46 224.542 467.501 213.02 466.415 212.95C464.188 228.354 465.65 249.604 475.226 262.599L479.224 267.326C471.434 262.061 464.232 255.356 456.08 250.734C455.07 268.517 456.851 286.074 469.299 299.922L473.732 304.563C464.544 300.146 456.798 294.653 448.389 288.988C448.061 307.317 451.735 326.095 464.866 339.817L468.475 343.351C459.236 339.282 452.174 335.094 445.034 327.936C444.6 344.329 447.821 362.706 459.34 375.25L464.562 380.057C456.824 377.541 448.855 373.467 442.411 368.489C442.844 384.95 447.545 400.765 457.348 414.231C458.89 416.35 460.865 418.067 462.483 420.109C456.304 418.622 451.13 416.115 445.75 412.77C445.104 413.963 445.366 415.328 445.374 416.673C442.767 414.991 440.534 411.833 438.323 409.59L420.778 391.977L342.404 314.902L313.494 286.64C310.581 284.039 307.942 281.065 304.382 279.344C312.553 271.499 322.063 264.363 331.304 257.8C365.433 233.56 402.625 217.359 443.154 207.102C453.309 204.532 463.726 203.395 473.949 201.182Z" fill="#EFECD8"/>
<path d="M548.225 658.097C550.324 661.908 552.43 665.284 555.247 668.613L554.127 661.636C556.756 667.374 559.425 673.377 564.049 677.828C563.718 676.013 562.872 673.09 563.366 671.302C565.691 678.004 568.602 682.12 573.75 686.992L574.385 686.997L574.318 686.271L574.25 684.319C577.915 688.818 580.369 693.959 584.75 697.998L585.383 697.75L585.2 694.125L585.861 694.25L586.16 694.814C588.626 699.382 591.844 703.189 596.404 705.803L596.25 702.119C599.221 705.594 600.491 708.708 604.345 711.684L605.27 711.75L605.062 709.25L605.877 708.75C608.958 712.981 611.983 715.383 616.25 718.327L616.75 717.643L616.408 716.25L616.846 716.021L617.258 716.689C618.74 719.076 620.299 721.302 623 722.396C623.72 721.487 623.446 722.017 623.75 720.773C625.467 722.579 628.857 726.715 631.374 726.963L631.78 725.718C633.986 728.02 636.429 730.466 639.5 731.547L640.067 730.75L640.5 730.461L640.883 730.95C645.372 736.462 653.089 740.983 659.031 744.938C661.576 746.632 663.944 748.658 666.526 750.265L654.995 730.289C651.623 724.51 648.398 718.189 644.25 712.933C641.774 709.796 638.786 707.198 635.754 704.616L641.712 705.832C638.195 701.417 634.89 696.988 630.196 693.75L633.985 693.387C633.804 691.847 628.822 687.488 627.331 686.359C625.705 685.128 623.889 684.183 622.076 683.262L627.146 682.051C624.056 679.729 620.959 677.219 617.64 675.239C616.047 674.287 613.083 673.605 611.864 672.416L618.947 671.676C614.329 668.477 608.482 663.869 603 662.526V662.157L607.712 661.336L609 660.607C622.666 664.613 635.998 671.285 649.031 676.975L722.522 709.322L738.108 715.709C740.675 716.699 743.952 717.211 745.98 719.123C719.127 748.434 686.846 771.923 651.529 790.025C614.821 808.841 574.391 821.775 533.027 824.166L533.705 814.136L535.155 813.458L536.729 813.328C537.578 811.101 537.747 808.13 537.25 805.796L536.162 805.575L536.055 805.245C535.349 803.25 535.588 801.583 535.747 799.505L543.016 723.271L546.521 676.75C547.06 670.536 547.306 664.263 548.225 658.097Z" fill="#EFECD8"/>
<path d="M302.798 280.945C305.428 283.759 307.034 287.607 308.757 291.028L316.565 306.467L349.353 368.124L367.774 403.416C369.796 407.202 371.057 411.316 373.827 414.608L374.186 415.085L371.277 422.173C368.007 409.213 358.984 399.218 348.457 391.336C348.235 395.105 348.156 398.958 347.46 402.674C343.797 390.324 336.03 383.151 325.967 375.694C326.042 379.21 326.137 382.609 325.576 386.093L325.373 385.374L324.821 383.533C322.838 376.992 316.918 370.784 311.613 366.75L311.379 367.219C311.002 367.922 311.168 367.667 310.523 368.25C306.844 364.043 303.353 360.415 298.75 357.21L297.966 357.25L298.454 358.75L298.043 358.922L297.688 358.409C295.388 355.141 292.586 352.357 289.75 349.558L288.75 349.605L287.75 351.412L287.453 350.94C284.19 345.982 278.301 342.763 273.593 339.299C270.521 337.039 267.165 334.08 263.637 332.649L274.499 353.25C273.815 354.136 274.203 353.715 273.321 354.5C276.145 359.299 278.582 363.708 282.445 367.75C281.15 368.217 280.037 367.818 278.75 367.518C279.005 369.368 280.311 371.004 281.258 372.611C283.224 375.947 285.232 381.094 288.099 383.535C288.766 384.102 289.449 384.291 290.25 384.569L291.467 385.044L291.25 385.448C289.292 385.734 287.705 385.726 285.75 385.42L285.404 386C288.212 390.534 290.813 395.638 294.66 399.373C296.677 401.33 299.112 402.725 301.507 404.164L292.579 405.17C298.545 413.414 303.459 418.759 312.433 423.748L301.599 425.162C309.272 433.816 315.962 441.186 327.135 445.178C322.563 446.007 318.189 446.601 313.533 446.562C321.156 456.006 328.721 462.473 339.824 467.452C336.11 468.309 332.232 469.368 328.429 469.666C332.371 474.938 336.926 479.25 342.553 482.711C345.319 484.413 348.313 485.884 351.309 487.132C352.158 487.486 354.841 488.269 355.23 488.938L344.935 491.174L198.448 509.985L242.925 522.312L334.023 548.651L373.917 560.154C376.861 561.039 384.302 562.32 386.173 564.498L388.51 571.122C381.617 566.964 375.111 564.641 367.351 562.653C368.225 565.107 369.313 567.627 369.917 570.157C362.863 567.5 355.755 566.238 348.299 565.335C348.094 566.244 351.143 571.283 351.74 572.413C347.586 571.11 343.355 569.788 339.039 569.141C335.478 568.608 331.834 568.609 328.293 567.983L332.009 574.501C323.887 572.408 316.517 572.256 308.179 572.512L313.467 577.701C305.643 577.1 298.221 576.891 290.378 577.629L294.219 581.836C287.49 581.578 279.946 580.954 273.386 582.895L278.932 586.61C274.167 586.583 269.639 586.903 264.905 587.25C262.286 587.441 259.368 587.384 256.889 588.25C257.548 589.027 258.111 589.429 258.942 590L258.75 590.484L231.741 594L272.861 601.185L272.892 601.864L270.735 603.25L270.75 603.855L290.553 605.736L286.266 608.758C294.225 609.656 301.104 609.814 309.091 609.327L303.193 613.895C308.673 614.457 315.011 615.1 320.499 614.42C322.767 614.139 325.032 613.37 327.263 612.849L320.994 617.958C329.447 618.39 336.767 618.804 345.081 616.783L339.399 620.975L349.65 622.085L307.25 675.59C296.768 688.875 285.115 702.096 276.137 716.436L274.638 714.754C267.199 706.01 259.806 697.171 253.268 687.724C212.64 629.014 193.351 557.774 199.479 486.559C204.989 422.536 229.985 363.389 270.952 314.119C280.62 302.491 291.23 290.697 302.798 280.945Z" fill="#EFECD8"/>
<path d="M578.431 414.194L563.477 419.352C575.449 405.642 580.441 387.67 582.579 369.983C575.263 375.447 567.83 377.927 559.448 381.128C570.998 372.161 577.429 360.329 579.295 345.766C580.006 340.208 580.031 334.846 579.969 329.254C572.953 336.28 565.656 340.224 556.429 343.855C566.01 336.028 571.692 324.932 574.59 313L574.819 312.083C576.622 304.59 576.777 296.721 576.474 289.058C568.642 294.53 561.923 300.178 552.865 303.73C555.262 300.891 557.79 298.059 559.743 294.89C567.993 281.501 569.595 266.589 568.216 251.172L568.138 250.329L546.824 265.727C557.476 251.304 560.292 231.341 558.244 213.797C558.192 213.354 558.114 213.158 557.99 212.77L541.625 226.202L541.948 225.677C546.338 218.451 549.611 209.95 550.163 201.446C566.846 204.28 583.064 207.338 599.31 212.175C667.809 232.569 726.938 275.236 768.239 333.474C815.744 400.459 835.302 483.926 821.431 564.912C814.128 607.547 798.231 647.346 774.224 683.292C766.688 694.577 758.304 705.989 748.961 715.85C744.093 710.393 739.988 703.949 735.427 698.19L702.942 657.669L686.822 637.676C682.232 632.138 677.343 626.96 673.538 620.825L685.363 620.312C682.933 618.351 680.843 616.021 678.695 613.763C687.507 617.516 694.79 618.163 704.19 617.151C702.526 615.782 701.216 614.258 699.828 612.624C706.427 614.341 713.306 613.336 719.932 612.282C719.809 611.208 717.273 608.927 716.461 608.013C719.675 608.625 723.18 609.417 726.457 609.33C729.72 609.244 733.123 608.524 736.347 608.025L731.89 604.589C738.59 604.051 745.259 603.874 751.749 602.014L745.736 599.245C758.371 598.634 770.58 595.986 782.943 593.563C779.071 591.444 774.492 590.043 770.327 588.56C759.565 584.729 748.661 581.521 737.418 579.458L740.433 577.11L732.75 575.896C728.475 575.328 724.245 575.844 719.971 576.216L722.75 572.923L722.385 572.164C716.274 571.518 710.114 572.173 704.03 572.803L705.879 568.331C698.651 567.892 692.483 568.744 685.536 570.597C685.877 568.479 686.777 566.339 687.449 564.296C680.4 564.795 674.146 566.582 667.722 569.422L670.457 562.326C663.962 564.031 656.336 563.938 650.579 567.575L650 567.951L649.401 567.75C649.779 565.891 650.193 564.562 649.415 562.773L648.552 562.293L648.346 561.25C648.611 560.884 648.78 560.423 649.142 560.152C650.078 559.455 652.674 558.875 653.89 558.442L672.852 552.308L823.421 509.322L683.498 490.696L669.555 488.684C681.225 485.381 689.094 478.382 697.767 470.232L683.605 468.68C685.701 468.027 687.887 467.841 689.964 467.121C700.418 463.493 706.4 455.027 712.933 446.684C708.991 446.592 704.579 446.028 700.844 444.754C705.447 442.861 709.775 440.871 713.596 437.622C718.167 433.734 721.392 428.62 724.767 423.724C720.767 424.005 716.722 423.516 712.762 422.985C714.931 421.645 717.258 420.703 719.369 419.233C725.659 414.852 729.664 408.791 732.822 401.935L730.448 402.858C728.262 403.71 726.865 404.145 724.5 403.894L724.403 403.483C731.366 398.425 736.876 389.641 740.469 381.93L733.854 385.092L757.416 333.097C748.963 341.199 739.824 348.555 730.79 355.989C724.813 360.908 717.347 365.589 712.836 371.924L712.384 372.565L712.956 365.025C706.857 370.595 701.716 376.5 697.641 383.732L697.219 384.49C696.407 381.43 696.417 378.256 696.287 375.111C687.94 382.014 678.812 388.343 676.161 399.458L676.003 400.156C675.042 395.553 674.212 391.103 673.872 386.404C676.162 384.571 677.561 378.908 678.631 376.064L689.857 344.455L710.314 285.672L642.622 350.914L605.716 386.18L589.339 401.728C585.65 405.271 580.689 409.552 578.431 414.194Z" fill="#EFECD8"/>
<path d="M508.667 67.5043L512.142 52.5303L535.231 141.278C547.953 141.813 560.371 143.609 572.91 145.75C615.214 152.972 657.117 167.984 694.543 189.011C709.555 197.445 723.378 207.097 737.495 216.878L761.791 237.65L787.269 262.999L808.717 288.739C838.882 330.746 862.284 377.315 873.446 428.113C878.088 449.238 880.472 470.352 882.537 491.828L882.554 532.541C879.919 603.595 853.186 676.217 811.006 733.261C803.376 744.036 794.389 755.438 784.985 764.68C779.253 770.499 773.627 776.759 767.232 781.844L736.544 806.769C677.405 851.3 605.096 880.105 530.72 882.766L493.229 882.989C459.053 880.748 425.185 874.778 392.766 863.504C355.756 850.635 321.465 831.37 289.742 808.54L259.561 783.259L242.138 765.944L219.368 738.402L201.669 714.153C175.735 674.828 156.336 629.756 147.183 583.481C143.798 566.37 142.105 549.243 140.969 531.867L140.979 491.271C143.602 455.157 150.19 419.845 162.697 385.77C175.11 351.952 192.928 320.703 214.584 292C221.173 282.059 229.469 272.814 237.437 263.965L260.749 240.555L289.638 216.329C293.628 213.869 297.435 210.749 301.309 208.064L325.663 192.257C363.551 169.776 404.808 154.298 448.169 146.434C460.991 144.109 473.903 142.072 486.929 141.39L490.654 141.75C490.923 143.152 490.366 144.635 490.035 145.998L487.301 159.765C486.962 161.939 487.153 167.252 486.277 168.918L486.001 169.85C485.699 170.925 485.771 171.652 486 172.75L484.75 174.255L484.226 173.746C483.71 173.261 483.288 172.935 482.689 172.581L482.266 172.101C481.258 170.914 480.562 169.377 479.821 168.014C477.361 174.619 475.758 181.005 475.117 188.047C474.883 190.623 475.095 193.294 474.74 195.839C474.612 197.538 474.733 199.668 473.949 201.182C463.726 203.395 453.309 204.532 443.154 207.102C402.625 217.359 365.433 233.56 331.304 257.8C322.063 264.363 312.553 271.499 304.382 279.344L302.798 280.945C291.23 290.697 280.62 302.491 270.952 314.119C229.985 363.389 204.989 422.536 199.479 486.559C193.351 557.774 212.64 629.014 253.268 687.724C259.806 697.171 267.199 706.01 274.638 714.754L276.137 716.436L279.225 720.132C330.962 775.492 402.456 813.805 478.098 822.252C484.87 823.341 491.722 823.684 498.563 824.02C502.263 824.202 506.213 824.649 509.899 824.362L514.81 824.135C520.432 824.943 527.371 824.727 533.027 824.166C574.391 821.775 614.821 808.841 651.529 790.025C686.846 771.923 719.127 748.434 745.98 719.123L748.961 715.85C758.304 705.989 766.688 694.577 774.224 683.292C798.231 647.346 814.128 607.547 821.431 564.912C835.302 483.926 815.744 400.459 768.239 333.474C726.938 275.236 667.809 232.569 599.31 212.175C583.064 207.338 566.846 204.28 550.163 201.446C549.611 209.95 546.338 218.451 541.948 225.677L541.625 226.202L557.99 212.77C558.114 213.158 558.192 213.354 558.244 213.797C560.292 231.341 557.476 251.304 546.824 265.727L568.138 250.329L568.216 251.172C569.595 266.589 567.993 281.501 559.743 294.89C557.79 298.059 555.262 300.891 552.865 303.73C561.923 300.178 568.642 294.53 576.474 289.058C576.777 296.721 576.622 304.59 574.819 312.083L574.59 313C571.692 324.932 566.01 336.028 556.429 343.855C565.656 340.224 572.953 336.28 579.969 329.254C580.031 334.846 580.006 340.208 579.295 345.766C577.429 360.329 570.998 372.161 559.448 381.128C567.83 377.927 575.263 375.447 582.579 369.983C580.441 387.67 575.449 405.642 563.477 419.352L578.431 414.194C576.283 426.91 571.924 439.903 565.54 451.13C563.51 454.701 561.276 458.349 558.479 461.376C557.998 461.896 556.187 463.484 556.172 464.05C560.889 462.84 564.313 461.553 568.429 458.922C564.467 476.368 558.416 495.65 547.112 509.787L558.534 504.295L547.083 531.084L526.583 569.995L518.456 586.127C517.17 588.911 515.64 591.865 515.182 594.914C514.259 593.371 514.088 592.306 514.023 590.516L514.137 562.475L513.987 494L513.085 177.615L512.967 118.18L512.665 84.5C512.462 78.7885 512.695 71.0007 510.255 65.75L508.667 67.5043Z" fill="#085730"/>
<path d="M536.756 145.883C555.035 148.292 573.272 150.867 591.25 155.024C623.016 162.37 653.136 173.904 682.188 188.621C734.332 215.036 780.782 257.178 813.638 305.37L824.958 323.429C826.339 325.82 828.371 328.628 829.227 331.239L802.042 352.869L792.253 361.527L764.01 317.724C712.033 251.391 634.001 206.491 550.244 196.293C551.117 187.547 548.329 176.54 545.771 168.232L534.374 184.506C535.77 180.189 537.669 175.923 538.656 171.5C540.484 163.305 538.393 154 536.756 145.883Z" fill="url(#paint0_linear_2_3)"/>
<path d="M490.035 145.998L487.301 159.765C486.962 161.939 487.153 167.252 486.277 168.918L486.001 169.85C485.699 170.925 485.771 171.652 486 172.75L484.75 174.255L484.226 173.746C483.71 173.261 483.288 172.935 482.689 172.581L482.266 172.101C481.258 170.914 480.562 169.377 479.821 168.014C477.361 174.619 475.758 181.005 475.117 188.047C474.883 190.623 475.095 193.294 474.74 195.839C465.181 196.717 455.373 198.873 446 200.969C403.443 210.484 362.94 228.399 327.449 253.77C260.764 301.44 210.471 377.621 197.408 458.985C185.87 530.855 197.575 604.947 234.512 668C240.047 677.448 246.113 686.607 252.603 695.423L262.96 708.89L226.446 738.773C219.837 729.827 212.702 721.541 206.491 712.256C183.001 677.146 164.357 635.456 154.995 594.211C151.076 576.949 148.948 559.448 147.078 541.87C145.116 523.441 145.685 503.98 147.086 485.53C149.577 452.751 155.994 420.044 167.235 389.097C180.994 351.218 202.335 314.929 227.713 283.703C280.569 218.668 353.751 173.166 435.421 154.481C453.348 150.379 471.76 147.917 490.035 145.998Z" fill="url(#paint1_linear_2_3)"/>
</g>
<defs>
<linearGradient id="paint0_linear_2_3" x1="682.011" y1="358.593" x2="683.747" y2="148.178" gradientUnits="userSpaceOnUse">
<stop stop-color="#438E37"/>
<stop offset="1" stop-color="#81B352"/>
</linearGradient>
<linearGradient id="paint1_linear_2_3" x1="310.536" y1="738.426" x2="320.558" y2="144.168" gradientUnits="userSpaceOnUse">
<stop stop-color="#2F7A35"/>
<stop offset="1" stop-color="#73A74A"/>
</linearGradient>
<clipPath id="clip0_2_3">
<rect width="1024" height="1024" fill="white"/>
</clipPath>
</defs>
</svg>
